PathFileType	4	(X/Y/Z)	D:\TRACE\spotREDO_2-26-24\spot_justBody_Motion_1_2-v60.trc
DataRate	CameraRate	NumFrames	NumMarkers	Units	OrigDataRate	OrigDataStartFrame	OrigNumFrames
100.00	100.00	      31	9	mm	100.00	1751	      7000
Frame#	Time	front left toe			Front right toe			aft left toe			aft right toe			Arm			FL body			FR body			AL Body			AR Body			
		X1	Y1	Z1	X2	Y2	Z2	X3	Y3	Z3	X4	Y4	Z4	X5	Y5	Z5	X6	Y6	Z6	X7	Y7	Z7	X8	Y8	Z8	X9	Y9	Z9	

1751	17.500	-336.99011	17.16417	-124.48608	191.89421	20.85282	-148.70027	-222.83643	26.16089	327.66144	216.29019	32.49028	283.73053	-104.43856	814.05054	-324.96725	-184.38777	554.11127	-290.71786	-29.59024	558.65887	-312.25760	-73.71986	564.19324	586.10291	74.73557	564.26910	567.99512	
1752	17.510	-336.29385	17.10561	-124.63630	192.58432	20.94048	-148.92685	-222.13499	26.23008	327.45599	216.73265	32.80853	283.69244	-105.62634	813.70538	-325.88525	-185.82420	553.88904	-291.69891	-30.76498	558.47327	-313.34900	-74.81286	564.44287	585.09900	73.26476	564.43079	567.04761	
1753	17.520	-335.83054	16.93239	-124.67807	193.39012	20.91821	-149.06563	-221.57269	26.10036	327.45169	217.11580	32.96446	283.52832	-107.23028	813.55798	-327.04742	-187.04659	553.62933	-292.77914	-32.10529	558.30060	-314.31699	-76.46996	564.60742	584.08319	71.91364	564.59979	565.83954	
1754	17.530	-335.02429	16.53373	-124.82877	194.16708	20.75550	-149.17683	-220.81033	26.16787	327.41599	217.82323	33.15279	283.25848	-108.57717	813.40100	-328.40656	-188.28098	553.41730	-293.74130	-33.46160	558.04022	-315.31430	-77.54391	564.82623	583.01563	70.32642	564.81659	564.95184	
1755	17.540	-334.41074	16.45977	-124.97916	194.63977	20.93506	-149.40115	-220.14806	26.07023	327.46301	218.26355	33.35299	283.06418	-110.13627	813.18024	-329.44592	-189.84346	553.19922	-295.07703	-34.75867	557.81226	-316.40472	-78.19640	564.37421	581.75574	68.95414	565.03632	563.95618	
1756	17.550	-333.91513	16.14711	-125.27143	195.51518	20.55840	-149.86008	-219.49501	25.84841	327.22562	218.34499	35.45936	282.94708	-111.41154	812.88501	-330.65964	-191.06519	553.12274	-296.10303	-36.20729	557.72095	-317.55698	-79.42333	564.62531	580.59442	67.83564	564.98077	562.54828	
1757	17.560	-333.50137	16.09219	-125.29121	196.01619	20.56561	-150.11349	-219.18233	25.46842	327.19958	220.92393	43.12354	285.93237	-112.96964	812.83600	-331.81470	-192.82628	553.53998	-297.08865	-37.82935	557.73334	-318.86230	-80.09705	564.24219	579.49054	67.26866	564.37183	561.34955	
1758	17.570	-332.74890	16.00327	-125.04456	196.19868	20.45991	-150.54680	-218.74467	25.25424	327.12018	220.78572	52.67597	291.50089	-113.88239	813.05847	-332.89319	-194.57732	553.88635	-298.28308	-39.77868	557.76819	-320.08878	-80.99314	563.92010	578.41193	66.26353	563.45520	560.06146	
1759	17.580	-331.81470	15.59790	-124.99178	196.54684	20.57669	-150.86472	-217.60588	25.61386	327.08521	222.68692	64.84589	295.31479	-114.93701	813.35071	-333.88547	-196.02094	553.65125	-299.06168	-41.18121	557.35791	-321.31055	-81.80313	564.03577	576.97675	65.22351	563.62323	558.85657	
1760	17.590	-331.30032	14.91366	-125.04523	197.38905	20.61971	-150.88647	-216.69019	26.14747	326.78995	225.30319	77.95754	294.99142	-116.27640	813.13214	-334.94070	-197.05669	552.98950	-300.38635	-42.40837	556.71375	-322.15509	-82.81819	564.61548	575.92303	63.99223	564.23981	557.70239	
1761	17.600	-330.43744	14.40426	-125.23972	198.38582	20.63286	-150.84596	-216.04083	26.20623	326.77835	229.04788	91.22425	291.18973	-117.57607	812.12262	-336.31638	-197.99213	552.18658	-301.14481	-43.40878	555.82983	-323.16879	-84.21005	565.24854	575.20123	62.80448	564.82239	556.88293	
1762	17.610	-329.98898	14.59951	-125.52130	199.39157	20.88713	-150.98158	-215.53058	26.20574	326.67035	231.71713	103.93377	286.94083	-118.58822	810.69446	-337.63312	-199.02919	551.90070	-302.05630	-44.00124	555.44421	-323.77243	-85.56659	565.65704	574.52753	61.53802	565.22003	556.29919	
1763	17.620	-328.98611	14.63663	-125.46930	200.08449	20.82180	-151.11409	-214.67564	25.99698	326.45071	233.19545	114.89207	285.53897	-119.31483	809.97992	-338.62354	-199.75438	551.28802	-302.77451	-44.95591	555.15833	-324.71368	-86.60974	565.81110	573.62402	60.42537	565.49298	555.50543	
1764	17.630	-328.35022	14.45439	-125.51125	200.80783	20.58006	-151.26888	-213.89484	25.89487	326.36899	234.57191	123.77515	287.20105	-120.29456	810.02338	-339.90640	-200.77496	551.07196	-303.49521	-45.88879	554.76813	-325.35123	-87.33287	565.87750	572.88281	59.94692	565.56165	554.65918	
1765	17.640	-327.58432	14.07993	-125.57745	201.91537	20.73083	-151.34183	-213.10918	25.99249	326.26279	235.56747	131.69376	290.28711	-120.82139	809.91290	-340.41605	-201.53203	550.58502	-304.15704	-46.92187	554.59729	-326.32916	-87.96107	566.03497	572.06708	59.27108	565.74329	553.72388	
1766	17.650	-326.50577	13.59835	-125.52467	202.24980	20.83861	-151.61720	-212.01065	26.21845	326.16068	239.35730	138.81178	293.46567	-121.79349	809.66858	-341.29605	-202.33685	550.35626	-304.87985	-47.55858	554.37109	-326.97855	-88.60883	566.20953	571.40820	58.83953	565.90955	553.18665	
1767	17.660	-325.90497	13.57810	-125.52441	202.92624	20.88191	-151.58469	-211.28983	26.15221	326.15469	244.17502	145.59904	294.79581	-122.10226	809.25806	-341.88757	-202.89613	550.04919	-305.52899	-47.90489	554.03223	-327.46362	-89.43327	566.47205	570.72565	57.93859	566.32532	552.43164	
1768	17.670	-324.91888	13.40460	-125.72054	204.03918	20.74543	-151.64362	-210.49178	26.43209	326.34628	249.22154	151.09839	294.71457	-123.19009	808.84302	-342.96869	-203.52336	549.70905	-306.17780	-48.60373	553.68298	-328.22473	-90.39261	566.72803	570.09259	56.97400	566.65442	551.82983	
1769	17.680	-324.07336	13.41663	-126.02332	204.91479	21.07255	-151.75175	-209.66107	26.37092	326.29794	253.13118	153.87260	294.43448	-123.79851	808.34802	-343.52469	-203.77422	549.32532	-306.59375	-49.04504	553.37915	-328.65045	-91.05859	566.99854	569.63470	56.33952	566.94080	551.52179	
1770	17.690	-323.35254	13.23532	-126.11013	205.70503	20.89093	-152.07213	-208.81027	26.14494	326.32599	256.46381	154.52972	294.81400	-124.37258	808.20502	-344.13687	-204.25745	548.98907	-307.33557	-49.21906	553.15607	-328.94177	-91.45427	567.20007	569.24872	55.87700	567.14478	551.02643	
1771	17.700	-322.42725	13.07258	-126.09628	206.31560	20.93380	-152.10309	-208.01955	26.43246	326.20035	259.48538	153.88832	296.12558	-124.84019	808.31818	-344.66306	-204.50023	548.86877	-307.71790	-49.69647	553.10095	-329.32452	-91.91559	567.36377	568.73999	55.46209	567.41498	550.55096	
1772	17.710	-321.96432	13.17520	-126.32281	207.47321	20.81073	-152.01581	-207.03934	26.70441	325.99121	262.91385	152.51794	298.15067	-125.01190	808.29498	-345.07013	-204.67058	548.90485	-307.94058	-50.26327	553.06781	-329.90286	-92.19785	567.51874	568.44678	55.24187	567.52911	550.20557	
1773	17.720	-320.67676	12.95064	-126.34718	208.23793	20.79660	-152.42259	-206.35489	26.64491	325.78214	266.14902	151.75124	300.00797	-125.04827	808.27094	-345.50797	-204.88387	548.88281	-308.19760	-50.52290	553.08582	-330.39105	-92.34645	567.68860	567.97028	55.00409	567.62097	549.86304	
1774	17.730	-319.83289	12.83632	-126.12041	209.00327	20.91892	-152.51027	-205.33725	26.35771	325.62036	269.63812	151.88243	301.66840	-125.20692	808.16565	-345.82547	-205.27097	548.90240	-308.54596	-50.58409	553.03729	-330.55887	-92.44262	567.90411	567.59039	54.87777	567.71661	549.38013	
1775	17.740	-318.99069	12.60114	-126.11054	210.06201	20.83879	-152.56467	-204.47360	26.52340	325.52621	274.58258	153.05986	303.14673	-125.43050	808.09985	-346.25598	-205.68958	548.97974	-309.15402	-50.61766	552.85120	-330.77942	-92.40918	568.11969	567.22388	54.72799	567.88757	549.03619	
1776	17.750	-317.95712	12.44429	-126.27265	210.78600	20.83595	-152.66035	-203.84918	26.70542	325.42346	279.14520	154.05354	304.13486	-125.57653	807.85284	-346.63715	-205.42313	548.71234	-309.19254	-50.66367	552.64459	-331.04465	-92.53896	568.27551	567.03296	54.67107	568.10913	548.71600	
1777	17.760	-317.16031	12.35593	-126.40534	211.54030	20.59912	-152.66341	-202.78055	26.94467	325.40424	283.32147	154.59644	305.24780	-125.62423	807.69434	-347.03311	-205.33563	548.35266	-309.42395	-50.63004	552.49915	-331.30298	-92.75772	568.55774	566.78180	54.65736	568.34033	548.47357	
1778	17.770	-316.26349	12.37792	-126.45406	212.81026	20.83877	-152.68074	-201.69478	27.07037	325.35287	286.88895	154.55809	306.25681	-125.50230	807.35596	-347.42828	-205.12402	548.02594	-309.71542	-50.54445	552.29901	-331.57910	-92.77619	568.86121	566.57300	54.69566	568.52374	548.32880	
1779	17.780	-315.58997	12.23638	-126.50963	213.58711	20.62809	-152.72989	-200.90828	27.14079	325.45709	290.28067	152.55493	307.80441	-125.32995	806.98383	-347.75888	-205.00140	547.82031	-309.88510	-50.39474	552.07135	-331.79056	-92.66802	569.08667	566.39636	54.65771	569.10406	548.18713	
1780	17.790	-314.22137	11.85147	-126.51665	214.21896	20.76124	-152.88850	-199.83839	27.11741	325.52560	294.10049	148.02437	309.01437	-125.25516	806.74878	-348.01953	-205.07681	547.70807	-310.15347	-50.06124	551.86713	-331.91272	-92.60834	569.40515	566.23615	54.45042	569.52002	548.15369	
1781	17.800	-313.56631	11.73379	-126.37256	215.16820	20.69372	-152.90581	-198.82907	27.02605	325.59781	297.05042	141.33789	309.67282	-125.07577	806.63239	-348.17691	-204.76714	547.46027	-310.31744	-49.63389	551.82098	-331.92163	-92.39848	569.38965	565.58856	54.52185	570.02289	547.97394	
